<?xml version="1.0" standalone="no"?>
<!DOCTYPE svg PUBLIC "-//W3C//DTD SVG 20010904//EN"
 "http://www.w3.org/TR/2001/REC-SVG-20010904/DTD/svg10.dtd">
<svg version="1.0" xmlns="http://www.w3.org/2000/svg"
 width="252.000000pt" height="47.000000pt" viewBox="0 0 252.000000 47.000000"
 preserveAspectRatio="xMidYMid meet">

<g transform="translate(0.000000,47.000000) scale(0.100000,-0.100000)"
fill="#000000" stroke="none">
<path d="M140 376 c0 -15 -7 -26 -20 -29 -13 -3 -20 -14 -20 -30 0 -14 -5 -29
-11 -32 -7 -5 -8 -29 -4 -71 7 -61 6 -64 -19 -75 -29 -13 -26 -29 6 -29 18 0
19 -2 7 -17 -13 -15 -10 -16 35 -10 27 4 156 7 287 7 l239 0 0 155 0 155 -250
0 -250 0 0 -24z m446 -21 c-29 -22 -363 -22 -392 0 -17 13 5 14 196 14 191 0
213 -1 196 -14z m-336 -85 l25 -20 -37 0 c-43 0 -50 -16 -18 -45 19 -17 53
-17 91 -1 10 5 27 -2 47 -19 l30 -25 32 27 c27 22 35 25 51 15 28 -18 67 -14
89 8 26 26 18 40 -23 40 l-32 1 24 19 c13 11 36 20 52 20 l29 0 0 -85 0 -85
-220 0 -220 0 0 85 0 85 28 0 c15 0 38 -9 52 -20z m240 15 c0 -2 -23 -23 -51
-45 l-51 -40 -47 36 c-25 21 -50 41 -55 46 -6 4 38 8 97 8 59 0 107 -2 107 -5z"/>
<path d="M810 255 l0 -125 35 0 34 0 3 55 3 56 43 -56 c35 -44 49 -55 73 -55
l29 0 0 126 0 125 -32 -3 c-33 -3 -33 -4 -38 -63 l-5 -60 -48 63 c-36 46 -54
62 -73 62 l-24 0 0 -125z"/>
<path d="M1070 355 c0 -22 4 -25 35 -25 31 0 35 3 35 25 0 22 -4 25 -35 25
-31 0 -35 -3 -35 -25z"/>
<path d="M1390 355 c0 -21 5 -25 30 -25 25 0 30 4 30 25 0 21 -5 25 -30 25
-25 0 -30 -4 -30 -25z"/>
<path d="M1707 374 c-4 -4 -7 -61 -7 -126 l0 -118 35 0 35 0 1 58 0 57 22 -43
c27 -53 45 -51 75 8 l22 44 0 -62 0 -62 35 0 36 0 -3 123 -3 122 -35 0 c-32 0
-37 -4 -59 -52 -14 -29 -27 -53 -31 -53 -3 0 -17 24 -31 53 -20 44 -29 52 -54
55 -17 2 -34 0 -38 -4z"/>
<path d="M2200 355 c0 -22 4 -25 35 -25 31 0 35 3 35 25 0 22 -4 25 -35 25
-31 0 -35 -3 -35 -25z"/>
<path d="M2300 265 c0 -111 1 -115 25 -131 33 -21 85 -11 85 18 0 11 -8 22
-20 25 -18 5 -20 14 -20 104 l0 99 -35 0 -35 0 0 -115z"/>
<path d="M1070 220 l0 -90 35 0 35 0 0 90 0 90 -35 0 -35 0 0 -90z"/>
<path d="M1170 220 l0 -90 35 0 35 0 0 54 c0 32 5 58 13 65 22 18 37 -8 37
-66 0 -52 0 -53 30 -53 l30 0 0 78 c0 47 -5 83 -12 90 -15 15 -63 16 -89 2
-13 -7 -19 -7 -19 0 0 5 -13 10 -30 10 l-30 0 0 -90z"/>
<path d="M1390 215 c0 -91 -1 -96 -24 -104 -32 -13 -40 -38 -16 -51 28 -15 44
-12 74 11 25 20 26 24 26 130 l0 109 -30 0 -30 0 0 -95z"/>
<path d="M1508 303 c-19 -5 -23 -20 -9 -41 6 -10 13 -11 34 -1 26 12 57 7 57
-9 0 -4 -16 -8 -36 -9 -72 -2 -102 -79 -42 -112 24 -14 30 -14 60 1 28 13 35
13 46 2 7 -8 22 -14 33 -14 19 0 20 4 13 73 -8 93 -28 117 -93 116 -25 -1 -54
-3 -63 -6z m82 -108 c0 -9 -7 -18 -16 -22 -18 -7 -39 11 -30 26 11 17 46 13
46 -4z"/>
<path d="M2007 299 c-13 -8 -15 -14 -7 -29 8 -16 14 -17 38 -8 31 12 62 6 62
-13 0 -7 -9 -9 -22 -6 -30 8 -85 -17 -93 -43 -16 -50 53 -97 99 -66 21 13 26
13 36 1 16 -19 49 -19 56 -2 3 8 0 43 -5 78 -13 79 -33 99 -100 99 -25 0 -54
-5 -64 -11z m91 -106 c-4 -22 -48 -31 -48 -10 0 19 10 27 32 27 13 0 18 -6 16
-17z"/>
<path d="M2200 220 l0 -90 35 0 35 0 0 90 0 90 -35 0 -35 0 0 -90z"/>
</g>
</svg>
